<svg xmlns="http://www.w3.org/2000/svg" viewBox="0 0 35 35"><defs><style>.cls-1{fill:#fff;}.cls-2{fill:#333;}</style></defs><g id="Layer_2" data-name="Layer 2"><g id="Layer_1-2" data-name="Layer 1"><rect class="cls-1" width="35" height="35" rx="7"/><path class="cls-2" d="M27.75,2.68H7.25A4.74,4.74,0,0,0,2.51,7.43V18.7a4.75,4.75,0,0,0,4.74,4.75h7.06l2.41,3.92.08.11a.82.82,0,0,0,.7.41.81.81,0,0,0,.7-.4.49.49,0,0,0,.08-.12l2.41-3.92h7.06a4.75,4.75,0,0,0,4.74-4.75V7.43A4.74,4.74,0,0,0,27.75,2.68Z"/><path class="cls-1" d="M9.17,10.93a2.42,2.42,0,0,0-1.56.73V8.75H5.78v7.64H7.63v-.6a1.76,1.76,0,0,0,1.54.79,2.7,2.7,0,0,0,2.59-2.85S11.66,10.93,9.17,10.93Zm-.4,4A1.18,1.18,0,1,1,10,13.79,1.18,1.18,0,0,1,8.77,15Z"/><path class="cls-1" d="M12.35,8.58v1.76s.83,0,.83,1.53v4.52H15V11.45S15,8.58,12.35,8.58Z"/><path class="cls-1" d="M19.28,11s-3,0-3,2.83a2.75,2.75,0,0,0,3,2.79s3.1,0,3.1-2.79A2.79,2.79,0,0,0,19.28,11Zm0,4a1.18,1.18,0,1,1,1.18-1.18A1.18,1.18,0,0,1,19.28,15Z"/><path class="cls-1" d="M27.44,11.14v.52A2,2,0,0,0,25.9,11a2.53,2.53,0,0,0-2.6,2.81s0,2.72,2.53,2.72a2.11,2.11,0,0,0,1.61-.7v.43a1.17,1.17,0,0,1-1.17,1.34h-.44v1.63h.71a2.66,2.66,0,0,0,2.68-2.87V11.14ZM26.34,15a1.18,1.18,0,1,1,1.18-1.18A1.18,1.18,0,0,1,26.34,15Z"/></g></g></svg>