<svg xmlns="http://www.w3.org/2000/svg" viewBox="0 0 36.45 22.13"><defs><style>.cls-1{fill:none;}.cls-1,.cls-2{stroke:#333;stroke-linecap:round;stroke-linejoin:round;stroke-width:2px;}.cls-2{fill:#fff;}</style></defs><title>Asset 2</title><g id="Layer_2" data-name="Layer 2"><g id="Layer_1-2" data-name="Layer 1"><path class="cls-1" d="M17.25,18.21c-.49,3.44-2.35,3-4.67,2.72s-4.22-.41-3.73-3.86,3.09-8.19,5.41-7.88S17.74,14.76,17.25,18.21Z"/><path class="cls-1" d="M16.25,10.56l3-.15A2.34,2.34,0,0,1,21.67,12L23,17.28a1.94,1.94,0,0,1-2,2.24l-3.54.18"/><path class="cls-1" d="M11.85,10l-2.4-.8A2.91,2.91,0,0,0,6,10.26l-2.29,4a2.3,2.3,0,0,0,1.58,3.26l2.85.94"/><path class="cls-1" d="M23.42,17.24l2-1.55a1.65,1.65,0,0,0-.86-3l-2-.14"/><path class="cls-1" d="M3.33,14.53,1.26,11.75a1.3,1.3,0,0,1,1.3-2l2.86.56"/><path class="cls-2" d="M32.4,8.82c0,4.72-3.6,10.1-8,10.1h0c-4.39,0-8-5.38-8-10.1Z"/><rect class="cls-2" x="15.45" y="18.92" width="18" height="2.08" rx="1.04"/><path class="cls-2" d="M32.72,8.82a2.81,2.81,0,0,1,2.73,2.88c0,1.6-2.5,3.09-4,3.09"/><line class="cls-2" x1="21.63" y1="4.12" x2="21.63" y2="6.54"/><line class="cls-2" x1="24.37" y1="1" x2="24.37" y2="6.54"/><line class="cls-2" x1="27.28" y1="4.12" x2="27.28" y2="6.54"/></g></g></svg>