<svg xmlns="http://www.w3.org/2000/svg" viewBox="0 0 42 30"><defs><style>.cls-1{fill:none;}.cls-1,.cls-2{stroke:#333;stroke-linecap:round;stroke-linejoin:round;stroke-width:2px;}.cls-2{fill:#fff;}</style></defs><g id="Layer_2" data-name="Layer 2"><g id="Layer_1-2" data-name="Layer 1"><path class="cls-1" d="M37.26,11.08c0,6.71-4.41,14.36-9.8,14.36h0c-5.39,0-9.8-7.65-9.8-14.36Z"/><path class="cls-1" d="M32.61,23h3.61a2.42,2.42,0,0,1,2.32,2.5v.39a2.43,2.43,0,0,1-2.32,2.51H18.81a2.43,2.43,0,0,1-2.32-2.51V25.5A2.42,2.42,0,0,1,18.81,23H22.3"/><path class="cls-1" d="M37.65,11.08c1.85,0,3.35,1.84,3.35,4.1s-3.06,4.39-4.91,4.39"/><path class="cls-2" d="M31.22,4.22a1.56,1.56,0,0,1,0,2.14,1.56,1.56,0,0,0,0,2.14"/><path class="cls-2" d="M28,1a2.89,2.89,0,0,1,0,3.75A2.89,2.89,0,0,0,28,8.5"/><path class="cls-2" d="M24.28,4.22a1.56,1.56,0,0,1,0,2.14,1.56,1.56,0,0,0,0,2.14"/><path class="cls-1" d="M11.08,24.71c2.79,2.82,4,1.15,5.58-.76s3-3.32.26-6.15-8.15-5.38-9.76-3.47S8.29,21.88,11.08,24.71Z"/><path class="cls-1" d="M6.55,17,4.1,18.91a2.73,2.73,0,0,0-.82,3.2l2.65,5.73a2,2,0,0,0,3.14.66L12,26.19"/><path class="cls-1" d="M9.6,13.36,10.94,11A2.76,2.76,0,0,1,14.4,9.56l4.1,1.85"/><path class="cls-1" d="M5.54,28.12H2.87A2,2,0,0,1,1.5,24.79L3,23.27"/><path class="cls-1" d="M19.47,11.12,19.2,7.6a1.39,1.39,0,0,0-2.44-1L14.89,9.15"/></g></g></svg>