<svg xmlns="http://www.w3.org/2000/svg" viewBox="0 0 42 37"><defs><style>.cls-1{fill:none;stroke:#333;stroke-linecap:round;stroke-linejoin:round;stroke-width:2px;}.cls-2,.cls-3{fill:#333;}.cls-3{font-size:5.68px;font-family:NotoSansKR-Medium-KSCpc-EUC-H, Noto Sans KR;}.cls-4{letter-spacing:-0.01em;}</style></defs><g id="Layer_2" data-name="Layer 2"><g id="Layer_1-2" data-name="Layer 1"><line class="cls-1" x1="10.33" y1="15.44" x2="12.32" y2="15.46"/><line class="cls-1" x1="17.65" y1="15.64" x2="31.31" y2="15.76"/><path class="cls-2" d="M11.57,1.27h0m19,.73.92,3.75H10.47L11.39,2H30.61m.83-2H10.56a1,1,0,0,0-.93.8L8.26,6.39a1.05,1.05,0,0,0,.93,1.36H32.81a1.05,1.05,0,0,0,.93-1.36L32.37.8a1,1,0,0,0-.93-.8Z"/><path class="cls-2" d="M15.66,1.2h0M26.47,2l.59,3.75H14.94L15.53,2H26.47m.9-2H14.63a1,1,0,0,0-1,.89l-.75,4.74a1.84,1.84,0,0,0,1.82,2.12h12.5a1.84,1.84,0,0,0,1.82-2.12L28.32.89A1,1,0,0,0,27.37,0Z"/><path class="cls-2" d="M21.48,2a.52.52,0,0,1,.52.48l.2,3.27H19.79L20,2.48A.51.51,0,0,1,20.51,2h1m0-2h-1A2.51,2.51,0,0,0,18,2.36l-.24,3.89a1.41,1.41,0,0,0,1.41,1.5h3.65a1.42,1.42,0,0,0,1.42-1.5L24,2.36A2.51,2.51,0,0,0,21.48,0Z"/><path class="cls-1" d="M32.18,6.67v11a1.85,1.85,0,0,1-1.84,1.84H11.66a1.85,1.85,0,0,1-1.84-1.84v-11"/><rect class="cls-1" x="13.11" y="11.23" width="3.68" height="8.01" rx="1.46"/><path class="cls-1" d="M36.32,15.92h2.84A1.83,1.83,0,0,1,41,17.75V34.16A1.84,1.84,0,0,1,39.16,36H2.84A1.84,1.84,0,0,1,1,34.16V17.75a1.83,1.83,0,0,1,1.84-1.83H5.08"/><text class="cls-3" transform="translate(5.79 29.64) scale(0.98 1)">F<tspan class="cls-4" x="3.22" y="0">R</tspan><tspan x="6.91" y="0">ANCHISE</tspan></text></g></g></svg>