<svg xmlns="http://www.w3.org/2000/svg" viewBox="0 0 42 37"><defs><style>.cls-1{fill:none;stroke:#333;stroke-linecap:round;stroke-linejoin:round;stroke-width:2px;}.cls-2,.cls-3{fill:#333;}.cls-3{font-size:5.68px;font-family:NotoSansKR-Medium-KSCpc-EUC-H, Noto Sans KR;}.cls-4{letter-spacing:-0.01em;}</style></defs><g id="Layer_2" data-name="Layer 2"><g id="Layer_1-2" data-name="Layer 1"><line class="cls-1" x1="10.33" y1="15.44" x2="12.32" y2="15.46"/><line class="cls-1" x1="17.65" y1="15.64" x2="31.31" y2="15.76"/><path class="cls-2" d="M11.57,1.27h0m19,.73.92,3.75H10.47L11.39,2H30.61m.83-2H10.56a1,1,0,0,0-.93.8L8.26,6.39a1.05,1.05,0,0,0,.93,1.36H32.81a1.05,1.05,0,0,0,.93-1.36L32.37.8a1,1,0,0,0-.93-.8Z"/><path class="cls-2" d="M15.66,1.2h0M26.47,2l.59,3.75H14.94L15.53,2H26.47m.9-2H14.63a1,1,0,0,0-1,.89L12.6,7.75H29.4L28.32.89A1,1,0,0,0,27.37,0Z"/><path class="cls-2" d="M20.08,1.14h0M22,2l.23,3.75H19.79L20,2H22m.84-2H19.18a1.09,1.09,0,0,0-1.1,1l-.42,6.74h6.67L23.91,1a1.09,1.09,0,0,0-1.1-1Z"/><polyline class="cls-1" points="32.18 6.67 32.18 19.55 9.82 19.55 9.82 6.67"/><rect class="cls-1" x="13.11" y="11.23" width="3.68" height="8.01"/><polyline class="cls-1" points="36.32 15.92 41 15.92 41 36 1 36 1 15.92 5.08 15.92"/><text class="cls-3" transform="translate(5.79 29.64) scale(0.98 1)">F<tspan class="cls-4" x="3.22" y="0">R</tspan><tspan x="6.91" y="0">ANCHISE</tspan></text></g></g></svg>