<svg xmlns="http://www.w3.org/2000/svg" width="30" height="30" viewBox="0 0 30 30">
  <path id="Icon_material-person-outline" data-name="Icon material-person-outline" d="M21,9.563A3.937,3.937,0,1,1,17.063,13.5,3.937,3.937,0,0,1,21,9.563m0,16.875c5.569,0,11.437,2.738,11.437,3.938v2.063H9.563V30.375c0-1.2,5.869-3.938,11.438-3.938M21,6a7.5,7.5,0,1,0,7.5,7.5A7.5,7.5,0,0,0,21,6Zm0,16.875c-5.006,0-15,2.513-15,7.5V36H36V30.375C36,25.388,26.006,22.875,21,22.875Z" transform="translate(-6 -6)" fill="#3d2010"/>
</svg>
