<svg xmlns="http://www.w3.org/2000/svg" viewBox="0 0 217.62 75.34"><defs><style>.cls-1{fill:#f2d124;}.cls-2{fill:#3d2010;}.cls-3,.cls-4{fill:none;stroke:#f2d124;stroke-linecap:round;stroke-width:2px;}.cls-3{stroke-linejoin:round;}.cls-4{stroke-miterlimit:10;}</style></defs><g id="Layer_2" data-name="Layer 2"><g id="Layer_1-2" data-name="Layer 1"><path class="cls-1" d="M58.4,57.55c0-3.55.06-7.52.16-9.87h-.15c-1,4.24-3.16,11.16-5.23,17.66h-4c-1.57-5.68-3.79-13.56-4.73-17.71h-.15c.19,2.43.28,6.71.28,10.27v7.44H40.38V44.57H47.3C49,50,50.85,56.8,51.5,59.9h0c.52-2.73,2.88-10,4.68-15.33h6.67V65.34H58.4Z"/><path class="cls-2" d="M70.27,58.46c0,1.95,1.08,3.86,3.45,3.86,2,0,2.55-.72,3-1.66h4.76c-.61,1.9-2.49,5-7.89,5-5.67,0-8.13-3.84-8.13-7.93,0-4.89,2.77-8.39,8.3-8.39,5.91,0,7.92,3.88,7.92,7.77a8.94,8.94,0,0,1-.06,1.31Zm6.65-2.65c0-1.81-.84-3.34-3.16-3.34s-3.2,1.43-3.39,3.34Z"/><path class="cls-2" d="M99.52,62.34c0,4.61-2,7.53-8.56,7.53-6.28,0-7.52-2.94-7.69-4.56h4.86c.33,1,1.2,1.66,3,1.66,3.09,0,3.68-1.57,3.68-4.39V61.9c-.9,1.24-2.32,2-4.85,2-4.54,0-7.12-3.1-7.12-7a7.27,7.27,0,0,1,7.53-7.57c3,0,4.18,1.17,4.44,1.84,0-.39.15-1.27.18-1.5h4.52c0,1.28,0,2.74,0,4.12ZM87.77,56.77c0,2.47,1.48,3.93,3.59,3.93,2.87,0,3.64-1.64,3.64-4.05s-.51-4.08-3.54-4.08C89.4,52.57,87.77,53.9,87.77,56.77Z"/><path class="cls-2" d="M117.35,61.31a32.08,32.08,0,0,0,.23,4H113a6.05,6.05,0,0,1-.24-1.53c-.63.88-1.8,1.89-4.84,1.89-4.15,0-5.9-2.47-5.9-4.89,0-3.55,3.15-5.19,8.19-5.19h2.46v-.95c0-1.11-.44-2.2-2.65-2.2-2,0-2.45.77-2.67,1.9h-4.53c.26-2.77,2.15-5,7.38-5,4.61,0,7.12,1.66,7.12,5.37Zm-4.65-3.07h-1.94c-2.87,0-3.93.79-3.93,2.3,0,1.12.76,2.08,2.47,2.08,3,0,3.4-1.91,3.4-4Z"/><path class="cls-2" d="M140.18,58.94c-.92,3.87-4.14,6.69-9.89,6.69-7.26,0-10.7-4.66-10.7-10.57,0-5.69,3.55-10.79,10.94-10.79,6.11,0,9.07,3.25,9.63,6.72h-5c-.48-1.6-1.71-3.2-4.83-3.2-4.08,0-5.66,3.33-5.66,7.11,0,3.51,1.37,7.21,5.8,7.21a4.47,4.47,0,0,0,4.68-3.17Z"/><path class="cls-2" d="M158.29,57.51c0,4.72-3.12,8.19-8.57,8.19s-8.45-3.45-8.45-8.11c0-4.81,3.21-8.21,8.68-8.21C155,49.38,158.29,52.62,158.29,57.51Zm-12.18,0c0,3,1.42,4.78,3.72,4.78s3.62-1.78,3.62-4.75c0-3.26-1.32-4.81-3.69-4.81C147.55,52.76,146.11,54.24,146.11,57.54Z"/><path class="cls-2" d="M168.1,53V65.34h-4.76V53h-2.51V49.75h2.51V48.36c0-3.23,1.57-5.31,5.61-5.31a7.2,7.2,0,0,1,1.91.21v3.35a5.85,5.85,0,0,0-1.1-.1c-1.28,0-1.66.74-1.66,2v1.29h5.31V48.36c0-3.23,1.61-5.31,5.62-5.31a7.12,7.12,0,0,1,1.9.21v3.35a5.85,5.85,0,0,0-1.1-.1c-1.27,0-1.65.74-1.65,2v1.29h3V53h-3V65.34h-4.77V53Z"/><path class="cls-2" d="M187.82,58.46c0,1.95,1.08,3.86,3.45,3.86,2,0,2.55-.72,3-1.66H199c-.61,1.9-2.49,5-7.89,5-5.67,0-8.13-3.84-8.13-7.93,0-4.89,2.77-8.39,8.3-8.39,5.91,0,7.92,3.88,7.92,7.77a7.67,7.67,0,0,1-.07,1.31Zm6.64-2.65c0-1.81-.83-3.34-3.15-3.34s-3.2,1.43-3.39,3.34Z"/><path class="cls-2" d="M206.2,58.46c0,1.95,1.08,3.86,3.45,3.86,2,0,2.55-.72,3-1.66h4.77c-.61,1.9-2.49,5-7.89,5-5.67,0-8.13-3.84-8.13-7.93,0-4.89,2.77-8.39,8.3-8.39,5.91,0,7.92,3.88,7.92,7.77a7.67,7.67,0,0,1-.07,1.31Zm6.64-2.65c0-1.81-.83-3.34-3.15-3.34s-3.2,1.43-3.39,3.34Z"/><path class="cls-3" d="M56.46,24.68c4.58,1.37,9.06,3.6,10.31,7.14a24.22,24.22,0,0,1,.37,12.68c-.84,3.93-2.89,7-4.39,10.7a49,49,0,0,0-3.48,10.87c-1,6.63-16,8.13-18.12,8.25s-15.38-.37-20.25-5S21.77,60.7,12.65,56,1.9,47.2,1.27,45.7.1,33,11.81,34.37c0,0-3.74-8.72,11.25-11a88.13,88.13,0,0,1,22-.78,59.15,59.15,0,0,1,6.55.92"/><path class="cls-4" d="M12.15,39.07a4.83,4.83,0,0,0-1-.28,8,8,0,0,0-2.13-.23A3.35,3.35,0,0,0,5.7,41.93a6.94,6.94,0,0,0,.63,4,9.6,9.6,0,0,0,1.63,2,34.73,34.73,0,0,0,6.44,4.72S12,48.87,12.15,39.07Z"/><path class="cls-1" d="M37.15,28.45s17-.81,22.77,4.39A1,1,0,0,1,60,34.22c-1.36,1.43-6.13,4.33-22.35,4.33-21.5,0-20.38-5.07-20.38-5.07S18.15,28.45,37.15,28.45Z"/><path class="cls-3" d="M82.77,6.82c-12.62-10.62-29.25,3.63-23,7.25s.75,5.25.75,5.25-9.5-.62-9,5.38A26.34,26.34,0,0,1,50.4,35.07s3.87,1.5,4.75-8.12c0,0-.43-3.61,6.62-3.13,10.13.69,15-3.62,17.38-8.07"/><path class="cls-3" d="M72.27,14.45s13.25,3.37,18.13-.75,4.1-8.36-1.75-11.88C84.27-.8,77.15,3.69,77.15,3.69"/></g></g></svg>