<svg xmlns="http://www.w3.org/2000/svg" viewBox="0 0 42 42"><defs><style>.cls-1,.cls-2{fill:none;stroke:#333;stroke-linecap:round;stroke-linejoin:round;}.cls-1{stroke-width:2px;}.cls-2{stroke-width:0.7px;}</style></defs><g id="Layer_2" data-name="Layer 2"><g id="Layer_1-2" data-name="Layer 1"><path class="cls-1" d="M4.29,21.93,1.11,26.65a.63.63,0,0,0,.47,1l3.64,1.16"/><path class="cls-1" d="M4.46,21.88A14.7,14.7,0,0,1,19.26,7.29a14.69,14.69,0,0,1,14.8,14.59,16.56,16.56,0,0,1-5.14,11.78"/><path class="cls-1" d="M11.21,35.07c-2.7-.35-5.69-1.51-5.69-3.59v-2.6"/><polyline class="cls-1" points="28.76 34.15 28.76 41 11.6 41 11.6 35.16 11.6 35.11"/><path class="cls-1" d="M30.79,20.37c0,4.08-5.55,6.25-10.82,6.25S9.16,22.17,9.16,18.09,14.7,10.7,20,10.7,30.79,16.28,30.79,20.37Z"/><polygon class="cls-2" points="20.74 17.06 23.48 16.11 22.94 17.82 26.89 18.12 23.94 18.95 27.25 20.37 23.28 19.93 24.4 21.8 21.26 20.3 19.67 21.74 18.84 19.88 15.28 20.22 17.13 18.87 13.27 17.95 16.95 17.75 14.6 16 18.38 17.03 18.63 15.27 20.74 17.06"/><line class="cls-1" x1="18.99" y1="4.11" x2="18.99" y2="1"/><line class="cls-1" x1="5.13" y1="9.35" x2="2.91" y2="7.15"/><line class="cls-1" x1="37.86" y1="23.77" x2="41" y2="23.77"/><line class="cls-1" x1="32.55" y1="10.08" x2="34.77" y2="7.89"/></g></g></svg>