<svg xmlns="http://www.w3.org/2000/svg" viewBox="0 0 42 40"><defs><style>.cls-1{fill:none;stroke:#333;stroke-linecap:round;stroke-linejoin:round;stroke-width:2px;}</style></defs><g id="Layer_2" data-name="Layer 2"><g id="Layer_1-2" data-name="Layer 1"><ellipse class="cls-1" cx="12.57" cy="7.85" rx="6.75" ry="6.85"/><path class="cls-1" d="M17.92,18.83a9.63,9.63,0,0,0-5.35-1.66C6.18,17.17,1,23.75,1,31.86H17"/><polygon class="cls-1" points="27.22 5.6 27.81 7.44 29.72 7.44 28.17 8.58 28.76 10.42 27.22 9.28 25.68 10.42 26.27 8.58 24.73 7.44 26.63 7.44 27.22 5.6"/><polygon class="cls-1" points="34.63 5.6 35.22 7.44 37.13 7.44 35.58 8.58 36.17 10.42 34.63 9.28 33.09 10.42 33.68 8.58 32.13 7.44 34.04 7.44 34.63 5.6"/><ellipse class="cls-1" cx="28.92" cy="26.73" rx="12.08" ry="12.27"/><rect class="cls-1" x="22.18" y="24.73" width="2.49" height="8.77"/><path class="cls-1" d="M35.94,23.53a1.59,1.59,0,0,0-.61-.13H30.86a.66.66,0,0,1-.69-.62V20.16a2.32,2.32,0,0,0-2.12-2.42.66.66,0,0,0-.81.61v5h-.08a1.33,1.33,0,0,0-1.39,1.26v8.41a.66.66,0,0,0,.69.62h6.29c1,0,2,.19,2.8-.46a1.06,1.06,0,0,0,.41-.82v-.1a1.06,1.06,0,0,0-.68-1c-.18-.08-.52-.11-.33-.32s.45-.18.61-.3a1,1,0,0,0,.4-.8v-.1a1.2,1.2,0,0,0-.51-.89c-.3-.29-.52.13.2-.58a1,1,0,0,0,.31-.71v-.11a.87.87,0,0,0-.14-.49c-.14-.2-.27-.24-.26-.5a.83.83,0,0,1,.61-.81,1.08,1.08,0,0,0,.63-1A1.37,1.37,0,0,0,35.94,23.53Z"/></g></g></svg>